<svg width="24" height="24" viewBox="0 0 24 24" fill="none" xmlns="http://www.w3.org/2000/svg">
<path d="M20.5216 2H7.74603C7.5842 2 7.45306 2.13113 7.45306 2.29297C7.45306 2.4548 7.5842 2.58594 7.74603 2.58594H20.5216C21.0137 2.58594 21.414 2.98625 21.414 3.47836V16.2473C21.414 16.4092 21.5452 16.5403 21.707 16.5403C21.8688 16.5403 22 16.4092 22 16.2473V3.47836C22 2.6632 21.3368 2 20.5216 2Z" fill="#434343" stroke="#434343" stroke-width="0.6"/>
<path d="M21.707 19.3079C21.5452 19.3079 21.4141 19.439 21.4141 19.6008V20.5216C21.4141 21.0138 21.0138 21.4141 20.5216 21.4141H3.47836C2.98625 21.4141 2.58594 21.0138 2.58594 20.5216V3.47836C2.58594 2.98625 2.98625 2.58594 3.47836 2.58594H4.38414C4.54598 2.58594 4.67711 2.4548 4.67711 2.29297C4.67711 2.13113 4.54598 2 4.38414 2H3.47836C2.6632 2 2 2.6632 2 3.47836V20.5217C2 21.3368 2.6632 22 3.47836 22H20.5217C21.3368 22 22 21.3368 22 20.5216V19.6008C22 19.439 21.8689 19.3079 21.707 19.3079Z" fill="#434343" stroke="#434343" stroke-width="0.6"/>
<path d="M6.94808 10.5493C6.78624 10.5493 6.65511 10.6804 6.65511 10.8422V11.1109H6.38647C6.22464 11.1109 6.09351 11.242 6.09351 11.4038C6.09351 11.5657 6.22464 11.6968 6.38647 11.6968H6.65511V11.9654C6.65511 12.1273 6.78624 12.2584 6.94808 12.2584C7.10991 12.2584 7.24104 12.1273 7.24104 11.9654V11.6968H7.50968C7.67151 11.6968 7.80265 11.5657 7.80265 11.4038C7.80265 11.242 7.67151 11.1109 7.50968 11.1109H7.24104V10.8422C7.24104 10.6804 7.10987 10.5493 6.94808 10.5493Z" fill="#434343" stroke="#434343" stroke-width="0.239"/>
<path d="M16.9163 7.37409C17.0782 7.37409 17.2093 7.24296 17.2093 7.08112V6.81249H17.4779C17.6398 6.81249 17.7709 6.68135 17.7709 6.51952C17.7709 6.35768 17.6398 6.22655 17.4779 6.22655H17.2093V5.95792C17.2093 5.79608 17.0782 5.66495 16.9163 5.66495C16.7545 5.66495 16.6234 5.79608 16.6234 5.95792V6.22655H16.3547C16.1929 6.22655 16.0618 6.35768 16.0618 6.51952C16.0618 6.68135 16.1929 6.81249 16.3547 6.81249H16.6234V7.08112C16.6234 7.24292 16.7545 7.37409 16.9163 7.37409Z" fill="#434343" stroke="#434343" stroke-width="0.239"/>
<path d="M17.4779 16.161H17.2093V15.8923C17.2093 15.7305 17.0782 15.5994 16.9163 15.5994C16.7545 15.5994 16.6234 15.7305 16.6234 15.8923V16.161H16.3547C16.1929 16.161 16.0618 16.2921 16.0618 16.4539C16.0618 16.6158 16.1929 16.7469 16.3547 16.7469H16.6234V17.0155C16.6234 17.1774 16.7545 17.3085 16.9163 17.3085C17.0782 17.3085 17.2093 17.1774 17.2093 17.0155V16.7469H17.4779C17.6398 16.7469 17.7709 16.6158 17.7709 16.4539C17.7709 16.2921 17.6398 16.161 17.4779 16.161Z" fill="#434343" stroke="#434343" stroke-width="0.239"/>
<path d="M11.7966 2.37288V21.6271" stroke="#434343" stroke-width="0.9"/>
<path d="M11.8644 11.3559H21.5932" stroke="#434343"/>
</svg>
