<svg width="24" height="24" viewBox="0 0 24 24" fill="none" xmlns="http://www.w3.org/2000/svg">
<path d="M18.422 2H5.57797C3.60508 2 2 3.60508 2 5.57797V18.4221C2 20.3949 3.60508 22 5.57797 22H18.4221C20.3949 22 22 20.3949 22 18.422V5.57797C22 3.60508 20.3949 2 18.422 2ZM20.8281 18.422C20.8281 19.7487 19.7487 20.8281 18.422 20.8281H5.57797C4.25125 20.8281 3.17188 19.7487 3.17188 18.422V5.57797C3.17188 4.25125 4.25125 3.17188 5.57797 3.17188H18.4221C19.7488 3.17188 20.8281 4.25125 20.8281 5.57797V18.422Z" fill="#434343"/>
<path d="M18.9036 6.39326H9.97938C9.73403 5.66455 9.04477 5.13806 8.23438 5.13806C7.42399 5.13806 6.73473 5.66455 6.48938 6.39326H5.09637C4.77278 6.39326 4.51044 6.6556 4.51044 6.97919C4.51044 7.30279 4.77278 7.56513 5.09637 7.56513H6.48942C6.73477 8.29384 7.42403 8.82033 8.23442 8.82033C9.04481 8.82033 9.73407 8.29384 9.97942 7.56513H18.9037C19.2273 7.56513 19.4896 7.30279 19.4896 6.97919C19.4896 6.6556 19.2273 6.39326 18.9036 6.39326ZM8.23438 7.64845C7.86536 7.64845 7.56512 7.34822 7.56512 6.97919C7.56512 6.61017 7.86536 6.30994 8.23438 6.30994C8.60341 6.30994 8.90364 6.61017 8.90364 6.97919C8.90364 7.34822 8.60341 7.64845 8.23438 7.64845Z" fill="#434343"/>
<path d="M18.9036 11.4141H17.5106C17.2652 10.6854 16.5759 10.1589 15.7656 10.1589C14.9552 10.1589 14.266 10.6854 14.0206 11.4141H5.09637C4.77278 11.4141 4.51044 11.6764 4.51044 12C4.51044 12.3236 4.77278 12.5859 5.09637 12.5859H14.0206C14.266 13.3147 14.9553 13.8411 15.7656 13.8411C16.576 13.8411 17.2653 13.3147 17.5106 12.5859H18.9037C19.2273 12.5859 19.4896 12.3236 19.4896 12C19.4896 11.6764 19.2273 11.4141 18.9036 11.4141ZM15.7656 12.6693C15.3966 12.6693 15.0964 12.369 15.0964 12C15.0964 11.631 15.3966 11.3307 15.7656 11.3307C16.1347 11.3307 16.4349 11.631 16.4349 12C16.4349 12.369 16.1347 12.6693 15.7656 12.6693Z" fill="#434343"/>
<path d="M18.9036 16.4349H12.4898C12.2445 15.7062 11.5552 15.1797 10.7448 15.1797C9.93442 15.1797 9.24516 15.7062 8.99981 16.4349H5.09637C4.77278 16.4349 4.51044 16.6972 4.51044 17.0208C4.51044 17.3444 4.77278 17.6068 5.09637 17.6068H8.99981C9.24516 18.3355 9.93442 18.862 10.7448 18.862C11.5552 18.862 12.2445 18.3355 12.4898 17.6068H18.9037C19.2273 17.6068 19.4896 17.3444 19.4896 17.0208C19.4896 16.6972 19.2273 16.4349 18.9036 16.4349ZM10.7448 17.6901C10.3758 17.6901 10.0756 17.3899 10.0756 17.0209C10.0756 16.6518 10.3758 16.3516 10.7448 16.3516C11.1138 16.3516 11.4141 16.6518 11.4141 17.0208C11.4141 17.3898 11.1138 17.6901 10.7448 17.6901Z" fill="#434343"/>
</svg>
