<svg width="24" height="24" viewBox="0 0 24 24" fill="none" xmlns="http://www.w3.org/2000/svg">
<path d="M19.0832 4.00009H4.91684C4.68674 4.00009 4.50018 4.14934 4.50018 4.33342V19.6666C4.50018 19.8507 4.68674 19.9999 4.91684 19.9999H19.0832C19.3133 19.9999 19.4999 19.8507 19.4999 19.6666V4.33342C19.4999 4.1493 19.3133 4.00009 19.0832 4.00009ZM18.6666 19.3333H5.3335V4.66675H18.6666V19.3333Z" fill="#434343"/>
<path d="M21.1756 11.9977L21.9906 8.95638C22.0031 8.91025 22.0031 8.8625 21.9906 8.81638L21.1748 5.77074L21.9044 2.51944C21.9287 2.41082 21.8842 2.29961 21.7856 2.22245C21.6878 2.14474 21.5478 2.11132 21.4127 2.13345L18.1249 2.65811L15.1641 2.01178C15.0922 1.99607 15.0164 1.99607 14.9445 2.01178L12 2.65477L9.05256 2.01178C8.98079 1.99616 8.90512 1.99616 8.8334 2.01178L5.87221 2.65744L2.58728 2.13345C2.53567 2.1252 2.48254 2.12482 2.43077 2.13236C2.20437 2.1654 2.05437 2.33899 2.09562 2.52011L2.82561 5.77374L2.00937 8.82205C1.99688 8.86805 1.99688 8.91571 2.00937 8.96171L2.82436 12.0023L2.00937 15.0436C1.99688 15.0898 1.99688 15.1375 2.00937 15.1836L2.82519 18.2293L2.09562 21.4806C2.08635 21.5218 2.08682 21.564 2.09708 21.605C2.14213 21.7855 2.36161 21.9027 2.58728 21.8666L5.87513 21.3419L8.83798 21.9882C8.90975 22.0039 8.98538 22.0039 9.05714 21.9882L12.0021 21.3453L14.9483 21.9882C14.984 21.996 15.0208 21.9999 15.0579 21.9999C15.0946 21.9998 15.1311 21.9959 15.1666 21.9882L18.1278 21.3419L21.4127 21.8659C21.464 21.8741 21.5168 21.8745 21.5682 21.8671C21.7947 21.8344 21.9452 21.6611 21.9044 21.4799L21.1748 18.24L21.9906 15.1776C22.0027 15.1317 22.0027 15.0843 21.9906 15.0383L21.1756 11.9977ZM20.3411 18.2933L20.9765 21.1166L18.1949 20.6733C18.1316 20.6631 18.0663 20.6648 18.004 20.6783L15.0587 21.3213L12.1125 20.6783C12.0406 20.6626 11.9648 20.6626 11.8929 20.6783L8.9484 21.3213L6.00096 20.6783C5.96523 20.6706 5.92841 20.6666 5.89138 20.6666H5.89054C5.86325 20.6668 5.83601 20.6691 5.8093 20.6736L3.02394 21.1173L3.66017 18.284C3.66976 18.2412 3.66892 18.1974 3.65767 18.155L2.84269 15.1146L3.65767 12.0733C3.67017 12.0272 3.67017 11.9795 3.65767 11.9333L2.84269 8.89171L3.65767 5.84908C3.66892 5.80674 3.66981 5.76304 3.66017 5.72041L3.02394 2.88344L5.80596 3.32677C5.86919 3.3371 5.93455 3.33539 5.99679 3.32177L8.94215 2.67877L11.8883 3.32177C11.9602 3.33748 12.036 3.33748 12.1079 3.32177L15.0524 2.67877L17.9999 3.32177C18.0621 3.33539 18.1275 3.3371 18.1907 3.32677L20.9761 2.88277L20.3398 5.71608C20.3302 5.75878 20.3311 5.80262 20.3423 5.84508L21.1573 8.88538L20.3423 11.9267C20.3298 11.9728 20.3298 12.0206 20.3423 12.0667L21.1581 15.1086L20.3436 18.165C20.3324 18.2072 20.3315 18.2508 20.3411 18.2933Z" fill="#434343"/>
</svg>
