<?xml version="1.0" encoding="UTF-8" standalone="no"?>
<!-- Generator: Adobe Illustrator 19.0.0, SVG Export Plug-In . SVG Version: 6.00 Build 0)  -->

<svg
   xmlns:dc="http://purl.org/dc/elements/1.1/"
   xmlns:cc="http://creativecommons.org/ns#"
   xmlns:rdf="http://www.w3.org/1999/02/22-rdf-syntax-ns#"
   xmlns:svg="http://www.w3.org/2000/svg"
   xmlns="http://www.w3.org/2000/svg"
   xmlns:sodipodi="http://sodipodi.sourceforge.net/DTD/sodipodi-0.dtd"
   xmlns:inkscape="http://www.inkscape.org/namespaces/inkscape"
   version="1.1"
   id="Layer_1"
   x="0px"
   y="0px"
   viewBox="0 0 24 24"
   xml:space="preserve"
   sodipodi:docname="settings.svg"
   width="24"
   height="24"
   inkscape:version="0.92.3 (2405546, 2018-03-11)"><metadata
   id="metadata55"><rdf:RDF><cc:Work
       rdf:about=""><dc:format>image/svg+xml</dc:format><dc:type
         rdf:resource="http://purl.org/dc/dcmitype/StillImage" /><dc:title></dc:title></cc:Work></rdf:RDF></metadata><defs
   id="defs53" /><sodipodi:namedview
   pagecolor="#ffffff"
   bordercolor="#434343"
   borderopacity="1"
   objecttolerance="10"
   gridtolerance="10"
   guidetolerance="10"
   inkscape:pageopacity="0"
   inkscape:pageshadow="2"
   inkscape:window-width="1858"
   inkscape:window-height="1057"
   id="namedview51"
   showgrid="false"
   inkscape:zoom="14.75"
   inkscape:cx="16.574129"
   inkscape:cy="1.0687656"
   inkscape:window-x="-8"
   inkscape:window-y="-8"
   inkscape:window-maximized="1"
   inkscape:current-layer="Layer_1" />


<g
   id="g4574"
   transform="matrix(0.04296875,0,0,0.04296875,1.0000118,1)"
   style="fill:#434343;fill-opacity:1"><g
     id="g6"
     style="fill:#434343;fill-opacity:1">
	<g
   id="g4"
   style="fill:#434343;fill-opacity:1">
		<path
   id="path2"
   d="M 478.213,163.221 431.408,82.282 C 426.245,72.767 414.512,68.458 403.76,72.319 L 350.875,93.567 C 340.806,86.335 330.246,80.191 319.344,75.263 L 311.301,19.2 C 309.957,8.256 300.443,0 289.221,0 h -93.867 c -11.221,0 -20.715,8.256 -22.059,19.008 l -8.064,56.277 C 154.65,80.106 144.282,86.144 133.764,93.61 L 80.731,72.299 C 70.342,68.267 58.523,72.534 53.275,82.07 l -46.87,81.087 c -5.632,9.557 -3.307,21.952 5.44,28.864 l 44.8,35.029 c -0.683,6.763 -1.024,12.672 -1.024,18.283 0,5.611 0.341,11.52 1.045,18.261 l -44.864,35.072 c -8.555,6.763 -10.901,18.752 -5.461,28.779 l 46.805,80.96 c 5.205,9.493 16.896,13.845 27.669,9.941 L 133.7,397.098 c 10.069,7.232 20.629,13.376 31.531,18.304 l 8.043,56.085 c 1.365,10.923 10.88,19.179 22.08,19.179 h 73.515 c 3.989,0 7.637,-2.219 9.429,-5.675 1.835,-3.52 1.557,-7.765 -0.704,-11.029 -16.341,-23.381 -24.96,-50.795 -24.96,-79.232 0,-13.269 1.941,-26.56 5.781,-39.509 0.981,-3.328 0.299,-6.933 -1.856,-9.643 -2.155,-2.709 -5.461,-4.16 -8.939,-4.053 -1.152,0.064 -2.283,0.213 -5.184,0.576 -53.056,0 -96.213,-43.157 -96.213,-96.213 0,-53.077 43.157,-96.235 96.213,-96.235 53.056,0 96.213,43.157 96.021,97.984 -0.149,1.131 -0.299,2.261 -0.363,3.413 -0.171,3.456 1.344,6.784 4.053,8.939 2.731,2.155 6.336,2.795 9.643,1.856 20.757,-6.187 41.216,-7.68 64.384,-3.456 2.837,0.512 5.952,-0.768 8.341,-2.539 2.389,-1.771 3.947,-5.056 4.267,-8 0.043,-0.384 0.149,-2.112 0.149,-2.496 0,-6.635 -0.469,-12.907 -1.024,-18.283 L 472.752,192 c 8.555,-6.741 10.923,-18.731 5.461,-28.779 z m -68.096,50.71 c -2.944,2.304 -4.48,6.016 -4.011,9.728 0.448,3.584 0.917,7.595 1.216,11.861 -16.299,-1.728 -31.915,-0.832 -47.531,2.325 -4.117,-61.12 -55.147,-109.589 -117.291,-109.589 -64.811,0 -117.547,52.736 -117.547,117.568 0,62.165 48.469,113.195 109.589,117.291 -2.112,10.432 -3.179,20.992 -3.179,31.552 0,26.176 6.336,51.605 18.432,74.496 l -55.36,-0.512 -8.917,-62.187 c -0.555,-3.755 -3.029,-6.933 -6.528,-8.363 -12.992,-5.312 -25.493,-12.587 -37.205,-21.589 -1.899,-1.472 -4.203,-2.219 -6.507,-2.219 -1.344,0 -2.688,0.256 -3.968,0.768 L 71.769,397.93 24.985,315.455 74.5,276.735 c 2.944,-2.304 4.48,-6.016 4.011,-9.728 -1.067,-8.491 -1.557,-15.381 -1.557,-21.675 0,-6.294 0.491,-13.184 1.557,-21.675 0.469,-3.712 -1.067,-7.424 -4.011,-9.728 l -49.664,-40 48.021,-81.792 58.432,23.467 c 3.477,1.387 7.424,0.875 10.389,-1.365 12.587,-9.451 24.789,-16.533 37.291,-21.653 3.499,-1.451 5.995,-4.608 6.528,-8.363 l 9.856,-62.891 94.784,0.704 8.917,62.187 c 0.555,3.755 3.029,6.933 6.528,8.363 12.971,5.312 25.493,12.565 37.205,21.589 2.965,2.304 6.955,2.837 10.475,1.429 l 59.541,-22.848 46.827,82.453 z"
   inkscape:connector-curvature="0"
   style="fill:#434343;fill-opacity:1" />
	</g>
</g><g
     id="g12"
     style="fill:#434343;fill-opacity:1">
	<g
   id="g10"
   style="fill:#434343;fill-opacity:1">
		<path
   id="path8"
   d="m 497.669,360.085 c -8,-32 -43.925,-82.752 -106.347,-82.752 -64.704,0 -117.333,52.629 -117.333,117.333 0,64.704 52.63,117.334 117.334,117.334 5.909,0 10.667,-4.779 10.667,-10.667 0,-5.888 -4.779,-10.667 -10.667,-10.667 -52.928,0 -96,-43.072 -96,-96 0,-52.928 43.072,-96 96,-96 52.16,0 80.235,44.864 85.653,66.581 1.408,5.717 7.232,9.195 12.928,7.765 5.717,-1.428 9.195,-7.209 7.765,-12.927 z"
   inkscape:connector-curvature="0"
   style="fill:#434343;fill-opacity:1" />
	</g>
</g><g
     id="g18"
     style="fill:#434343;fill-opacity:1">
	<g
   id="g16"
   style="fill:#434343;fill-opacity:1">
		<path
   id="path14"
   d="m 497.989,298.667 c -5.888,0 -10.667,4.779 -10.667,10.667 v 53.333 h -53.333 c -5.888,0 -10.667,4.779 -10.667,10.667 0,5.888 4.779,10.667 10.667,10.667 h 64 c 5.909,0 10.667,-4.779 10.667,-10.667 v -64 c 0,-5.889 -4.779,-10.667 -10.667,-10.667 z"
   inkscape:connector-curvature="0"
   style="fill:#434343;fill-opacity:1" />
	</g>
</g></g>
<g
   id="g20"
   transform="translate(0,-488)">
</g>
<g
   id="g22"
   transform="translate(0,-488)">
</g>
<g
   id="g24"
   transform="translate(0,-488)">
</g>
<g
   id="g26"
   transform="translate(0,-488)">
</g>
<g
   id="g28"
   transform="translate(0,-488)">
</g>
<g
   id="g30"
   transform="translate(0,-488)">
</g>
<g
   id="g32"
   transform="translate(0,-488)">
</g>
<g
   id="g34"
   transform="translate(0,-488)">
</g>
<g
   id="g36"
   transform="translate(0,-488)">
</g>
<g
   id="g38"
   transform="translate(0,-488)">
</g>
<g
   id="g40"
   transform="translate(0,-488)">
</g>
<g
   id="g42"
   transform="translate(0,-488)">
</g>
<g
   id="g44"
   transform="translate(0,-488)">
</g>
<g
   id="g46"
   transform="translate(0,-488)">
</g>
<g
   id="g48"
   transform="translate(0,-488)">
</g>
</svg>