<svg width="24" height="24" viewBox="0 0 24 24" fill="none" xmlns="http://www.w3.org/2000/svg">
<path d="M21.8134 12.3306L11.6694 2.18661C11.5367 2.05383 11.3521 1.98634 11.1651 2.00231C6.07636 2.43435 2 6.68521 2 11.9827C2 17.5189 6.48029 22 12.0172 22C17.3112 22 21.5654 17.9268 21.9977 12.8349C22.0136 12.6479 21.9462 12.4633 21.8134 12.3306ZM17.1211 15.1511H10.643L13.1393 10.1584C13.8747 10.97 14.7116 11.6322 15.6196 12.148L17.1211 15.1511ZM9.21849 15.1511H7.27847L9.02096 11.6661L9.99099 13.6061L9.21849 15.1511ZM11.8528 4.17177C12.1351 4.45414 19.5472 11.8661 19.8283 12.1472C15.5851 11.7909 12.2091 8.41834 11.8528 4.17177ZM18.1996 18.1651C14.7827 21.5819 9.25217 21.5823 5.83492 18.1651C2.4181 14.7482 2.41767 9.21767 5.83492 5.80039C7.11861 4.51673 8.77112 3.66731 10.5487 3.36451C10.5338 5.40283 11.1371 7.38102 12.2686 9.05081L10.7032 12.1816L9.5908 9.95669C9.35653 9.4881 8.68568 9.48778 8.4512 9.95669L5.67789 15.5032C5.46655 15.926 5.7742 16.4252 6.24769 16.4252H18.1519C18.6246 16.4252 18.9334 15.9266 18.7217 15.5032L17.4483 12.9565C18.4491 13.2838 19.5177 13.4593 20.6355 13.4513C20.3327 15.2289 19.4833 16.8814 18.1996 18.1651Z" fill="#434343"/>
</svg>
